<svg width="50" height="50" viewBox="0 0 50 50" fill="none" xmlns="http://www.w3.org/2000/svg">
<rect width="50" height="50" rx="10" fill="#F6F7F8"/>
<path d="M30.53 20.77C30.46 20.76 30.39 20.76 30.32 20.77C28.77 20.72 27.54 19.45 27.54 17.89C27.54 16.3 28.83 15 30.43 15C32.02 15 33.32 16.29 33.32 17.89C33.31 19.45 32.08 20.72 30.53 20.77Z" fill="#6366F1"/>
<path d="M33.7901 27.6999C32.6701 28.4499 31.1001 28.7299 29.6501 28.5399C30.0301 27.7199 30.2301 26.8099 30.2401 25.8499C30.2401 24.8499 30.0201 23.8999 29.6001 23.0699C31.0801 22.8699 32.6501 23.1499 33.7801 23.8999C35.3601 24.9399 35.3601 26.6499 33.7901 27.6999Z" fill="#6366F1"/>
<path d="M19.4399 20.77C19.5099 20.76 19.5799 20.76 19.6499 20.77C21.1999 20.72 22.4299 19.45 22.4299 17.89C22.4299 16.29 21.1399 15 19.5399 15C17.9499 15 16.6599 16.29 16.6599 17.89C16.6599 19.45 17.8899 20.72 19.4399 20.77Z" fill="#6366F1"/>
<path d="M19.5501 25.8501C19.5501 26.8201 19.7601 27.7401 20.1401 28.5701C18.7301 28.7201 17.2601 28.4201 16.1801 27.7101C14.6001 26.6601 14.6001 24.9501 16.1801 23.9001C17.2501 23.1801 18.7601 22.8901 20.1801 23.0501C19.7701 23.8901 19.5501 24.8401 19.5501 25.8501Z" fill="#6366F1"/>
<path d="M25.12 28.87C25.04 28.86 24.95 28.86 24.86 28.87C23.02 28.81 21.55 27.3 21.55 25.44C21.56 23.54 23.09 22 25 22C26.9 22 28.44 23.54 28.44 25.44C28.43 27.3 26.97 28.81 25.12 28.87Z" fill="#6366F1"/>
<path d="M21.87 30.9401C20.36 31.9501 20.36 33.6101 21.87 34.6101C23.59 35.7601 26.41 35.7601 28.13 34.6101C29.64 33.6001 29.64 31.9401 28.13 30.9401C26.42 29.7901 23.6 29.7901 21.87 30.9401Z" fill="#6366F1"/>
</svg>
