<svg width="38" height="51" viewBox="0 0 38 51" fill="none" xmlns="http://www.w3.org/2000/svg">
<rect width="37.8" height="50.4" rx="18.9" fill="#F8E9FD"/>
<path d="M23.1903 21.5774H24.0471C23.9274 21.4073 23.8014 21.2498 23.6691 21.0923L23.1903 21.5774Z" fill="#7D0CE0"/>
<path d="M23.0076 20.4244C22.8501 20.2921 22.6926 20.1661 22.5225 20.0464V20.9032L23.0076 20.4244Z" fill="#7D0CE0"/>
<path d="M23.6754 21.0923L25.5339 19.2338C25.7166 19.0511 25.7166 18.7487 25.5339 18.566C25.3512 18.3833 25.0488 18.3833 24.8661 18.566L23.0076 20.4245C23.247 20.6324 23.4675 20.8592 23.6754 21.0923Z" fill="#7D0CE0"/>
<path d="M22.5225 19.5299C22.5225 19.2716 22.3083 19.0574 22.05 19.0574C21.798 19.0574 21.5964 19.259 21.5838 19.5047C21.9114 19.6622 22.2264 19.8386 22.5225 20.0465V19.5299Z" fill="#7D0CE0"/>
<path d="M25.0425 22.0499C25.0425 21.7916 24.8283 21.5774 24.57 21.5774H24.0471C24.255 21.8735 24.4377 22.1885 24.5889 22.5161C24.8409 22.5035 25.0425 22.3019 25.0425 22.0499Z" fill="#7D0CE0"/>
<path d="M19.3725 26.9323H19.5615C19.8072 26.9323 20.0025 26.7118 20.0025 26.4409C20.0025 26.1007 19.908 26.0503 19.6938 25.9747L19.3725 25.8613V26.9323Z" fill="#7D0CE0"/>
<path d="M24.5952 22.5161C24.5889 22.5161 24.5826 22.5224 24.57 22.5224H22.05C21.987 22.5224 21.9303 22.5098 21.8673 22.4846C21.7539 22.4342 21.6594 22.346 21.609 22.2263C21.5901 22.1696 21.5775 22.1129 21.5775 22.0499V19.5299C21.5775 19.5236 21.5838 19.5173 21.5838 19.5047C20.7648 19.1204 19.8576 18.8999 18.9 18.8999C15.4224 18.8999 12.6 21.7223 12.6 25.1999C12.6 28.6775 15.4224 31.4999 18.9 31.4999C22.3776 31.4999 25.2 28.6775 25.2 25.1999C25.2 24.2423 24.9795 23.3351 24.5952 22.5161ZM20.0025 25.0865C20.4057 25.2251 20.9475 25.5212 20.9475 26.4473C20.9475 27.2348 20.3238 27.8837 19.5615 27.8837H19.3725V28.0412C19.3725 28.2995 19.1583 28.5137 18.9 28.5137C18.6417 28.5137 18.4275 28.2995 18.4275 28.0412V27.8837H18.3771C17.5392 27.8837 16.8525 27.1781 16.8525 26.3087C16.8525 26.0441 17.0667 25.8299 17.325 25.8299C17.5833 25.8299 17.7975 26.0441 17.7975 26.3024C17.7975 26.6489 18.0558 26.9324 18.3771 26.9324H18.4275V25.5338L17.7975 25.3133C17.3943 25.1747 16.8525 24.8786 16.8525 23.9525C16.8525 23.165 17.4762 22.5161 18.2385 22.5161H18.4275V22.3649C18.4275 22.1066 18.6417 21.8924 18.9 21.8924C19.1583 21.8924 19.3725 22.1066 19.3725 22.3649V22.5224H19.4229C20.2608 22.5224 20.9475 23.228 20.9475 24.0974C20.9475 24.3557 20.7333 24.5699 20.475 24.5699C20.2167 24.5699 20.0025 24.3557 20.0025 24.0974C20.0025 23.7509 19.7442 23.4674 19.4229 23.4674H19.3725V24.866L20.0025 25.0865Z" fill="#7D0CE0"/>
<path d="M17.7975 23.9587C17.7975 24.2989 17.892 24.3493 18.1062 24.4249L18.4275 24.5383V23.4673H18.2385C17.9991 23.4673 17.7975 23.6878 17.7975 23.9587Z" fill="#7D0CE0"/>
</svg>
