<svg width="50" height="50" viewBox="0 0 50 50" fill="none" xmlns="http://www.w3.org/2000/svg">
<rect width="50" height="50" rx="10" fill="#FFFBEB"/>
<path d="M28.7999 15.21C28.3899 14.8 27.6799 15.08 27.6799 15.65V19.14C27.6799 20.6 28.9199 21.81 30.4299 21.81C31.3799 21.82 32.6999 21.82 33.8299 21.82C34.3999 21.82 34.6999 21.15 34.2999 20.75C32.8599 19.3 30.2799 16.69 28.7999 15.21Z" fill="#F6A72B"/>
<path d="M33.5 23.19H30.61C28.24 23.19 26.31 21.26 26.31 18.89V16C26.31 15.45 25.86 15 25.31 15H21.07C17.99 15 15.5 17 15.5 20.57V29.43C15.5 33 17.99 35 21.07 35H28.93C32.01 35 34.5 33 34.5 29.43V24.19C34.5 23.64 34.05 23.19 33.5 23.19ZM24.5 30.75H20.5C20.09 30.75 19.75 30.41 19.75 30C19.75 29.59 20.09 29.25 20.5 29.25H24.5C24.91 29.25 25.25 29.59 25.25 30C25.25 30.41 24.91 30.75 24.5 30.75ZM26.5 26.75H20.5C20.09 26.75 19.75 26.41 19.75 26C19.75 25.59 20.09 25.25 20.5 25.25H26.5C26.91 25.25 27.25 25.59 27.25 26C27.25 26.41 26.91 26.75 26.5 26.75Z" fill="#F6A72B"/>
</svg>
