<svg width="100" height="100" viewBox="0 0 100 100" fill="none" xmlns="http://www.w3.org/2000/svg">
<rect width="100" height="100" rx="50" fill="#F6F7F8"/>
<path d="M70 36V40C70 43.66 68.34 45.64 65 45.94C64.68 45.98 64.34 46 64 46H36C35.66 46 35.32 45.98 35 45.94C31.66 45.64 30 43.66 30 40V36C30 32 32 30 36 30H64C68 30 70 32 70 36Z" fill="#CBD5E1"/>
<path d="M37 48.5C35.9 48.5 35 49.4 35 50.5V64C35 68 36 70 41 70H59C64 70 65 68 65 64V50.5C65 49.4 64.1 48.5 63 48.5H37ZM53.64 57.5H46.36C45.54 57.5 44.86 56.82 44.86 56C44.86 55.18 45.54 54.5 46.36 54.5H53.64C54.46 54.5 55.14 55.18 55.14 56C55.14 56.82 54.46 57.5 53.64 57.5Z" fill="#CBD5E1"/>
</svg>
